<?xml version="1.0" ?><!DOCTYPE svg  PUBLIC '-//W3C//DTD SVG 1.0//EN'  'http://www.w3.org/TR/2001/REC-SVG-20010904/DTD/svg10.dtd'><svg enable-background="new 0 0 91.8 92.6" id="Layer_1" version="1.0" viewBox="0 0 91.8 92.6" xml:space="preserve" xmlns="http://www.w3.org/2000/svg" xmlns:xlink="http://www.w3.org/1999/xlink"><path d="M47.2,3.6c-23.5,0-42.5,19-42.5,42.5c0,23.5,19,42.5,42.5,42.5c23.5,0,42.5-19,42.5-42.5  C89.7,22.7,70.7,3.6,47.2,3.6z M52.5,55.9C49.2,60.4,44.4,64.8,38,69l-2.3-2.5c3.3-2.7,6.1-5.8,8.4-9.2c2.3-3.7,3.7-6.9,4.1-9.8  c-3.4,0-6.1-1.2-8-3.5c-1.7-2.1-2.5-4.6-2.5-7.6c0-3.1,0.8-5.7,2.5-7.6c2-2.2,4.6-3.3,8-3.3c3.3,0,5.9,1.1,7.8,3.3  c1.8,2.1,2.7,4.6,2.7,7.6C58.7,43.6,56.6,50.1,52.5,55.9z" fill="#1E1E1E"/></svg>